<svg width="32" height="32" viewBox="0 0 32 32" fill="none" xmlns="http://www.w3.org/2000/svg">
  <rect width="32" height="32" rx="6" fill="url(#gradient)"/>
  
  <!-- AI Neural Network Pattern -->
  <circle cx="8" cy="8" r="2" fill="#ffffff" opacity="0.9"/>
  <circle cx="16" cy="6" r="2" fill="#ffffff" opacity="0.9"/>
  <circle cx="24" cy="8" r="2" fill="#ffffff" opacity="0.9"/>
  <circle cx="8" cy="16" r="2" fill="#ffffff" opacity="0.9"/>
  <circle cx="16" cy="14" r="2" fill="#ffffff" opacity="0.9"/>
  <circle cx="24" cy="16" r="2" fill="#ffffff" opacity="0.9"/>
  <circle cx="8" cy="24" r="2" fill="#ffffff" opacity="0.9"/>
  <circle cx="16" cy="22" r="2" fill="#ffffff" opacity="0.9"/>
  <circle cx="24" cy="24" r="2" fill="#ffffff" opacity="0.9"/>
  
  <!-- Connection Lines -->
  <line x1="8" y1="8" x2="16" y2="6" stroke="#ffffff" stroke-width="1" opacity="0.4"/>
  <line x1="16" y1="6" x2="24" y2="8" stroke="#ffffff" stroke-width="1" opacity="0.4"/>
  <line x1="8" y1="16" x2="16" y2="14" stroke="#ffffff" stroke-width="1" opacity="0.4"/>
  <line x1="16" y1="14" x2="24" y2="16" stroke="#ffffff" stroke-width="1" opacity="0.4"/>
  <line x1="8" y1="24" x2="16" y2="22" stroke="#ffffff" stroke-width="1" opacity="0.4"/>
  <line x1="16" y1="22" x2="24" y2="24" stroke="#ffffff" stroke-width="1" opacity="0.4"/>
  
  <!-- Vertical Connections -->
  <line x1="8" y1="8" x2="8" y2="16" stroke="#ffffff" stroke-width="1" opacity="0.3"/>
  <line x1="16" y1="6" x2="16" y2="14" stroke="#ffffff" stroke-width="1" opacity="0.3"/>
  <line x1="24" y1="8" x2="24" y2="16" stroke="#ffffff" stroke-width="1" opacity="0.3"/>
  <line x1="8" y1="16" x2="8" y2="24" stroke="#ffffff" stroke-width="1" opacity="0.3"/>
  <line x1="16" y1="14" x2="16" y2="22" stroke="#ffffff" stroke-width="1" opacity="0.3"/>
  <line x1="24" y1="16" x2="24" y2="24" stroke="#ffffff" stroke-width="1" opacity="0.3"/>
  
  <!-- Initials AC -->
  <text x="16" y="20" text-anchor="middle" font-family="Arial, sans-serif" font-size="8" font-weight="bold" fill="#ffffff" opacity="0.8">AC</text>
  
  <defs>
    <linearGradient id="gradient" x1="0%" y1="0%" x2="100%" y2="100%">
      <stop offset="0%" style="stop-color:#3b82f6;stop-opacity:1" />
      <stop offset="50%" style="stop-color:#8b5cf6;stop-opacity:1" />
      <stop offset="100%" style="stop-color:#06b6d4;stop-opacity:1" />
    </linearGradient>
  </defs>
</svg> 